<svg xmlns="http://www.w3.org/2000/svg" width="400" height="400">
  <!-- Define colors -->
  <defs>
    <linearGradient id="color1" x1="0%" y1="0%" x2="100%" y2="0%">
      <stop offset="0%" style="stop-color:#1DA1F2;" />
      <stop offset="100%" style="stop-color:#1DA1F2;" />
    </linearGradient>
    <linearGradient id="color2" x1="0%" y1="0%" x2="100%" y2="0%">
      <stop offset="0%" style="stop-color:#14171A;" />
      <stop offset="100%" style="stop-color:#14171A;" />
    </linearGradient>
    <linearGradient id="color3" x1="0%" y1="0%" x2="100%" y2="0%">
      <stop offset="0%" style="stop-color:#657786;" />
      <stop offset="100%" style="stop-color:#657786;" />
    </linearGradient>
    <linearGradient id="color4" x1="0%" y1="0%" x2="100%" y2="0%">
      <stop offset="0%" style="stop-color:#AAB8C2;" />
      <stop offset="100%" style="stop-color:#AAB8C2;" />
    </linearGradient>
    <linearGradient id="color5" x1="0%" y1="0%" x2="100%" y2="0%">
      <stop offset="0%" style="stop-color:#E1E8ED;" />
      <stop offset="100%" style="stop-color:#E1E8ED;" />
    </linearGradient>
    <linearGradient id="color6" x1="0%" y1="0%" x2="100%" y2="0%">
      <stop offset="0%" style="stop-color:#F5F8FA;" />
      <stop offset="100%" style="stop-color:#F5F8FA;" />
    </linearGradient>
  </defs>
  
  <!-- Grid of rectangles -->
  <rect x="0" y="0" width="100" height="100" fill="url(#color1)" />
  <rect x="100" y="0" width="100" height="100" fill="url(#color2)" />
  <rect x="200" y="0" width="100" height="100" fill="url(#color5)" />
  <rect x="300" y="0" width="100" height="100" fill="url(#color6)" />
  
  <rect x="0" y="100" width="100" height="100" fill="url(#color2)" />
  <rect x="100" y="100" width="100" height="100" fill="url(#color6)" />
  <rect x="200" y="100" width="100" height="100" fill="url(#color6)" />
  <rect x="300" y="100" width="100" height="100" fill="url(#color5)" />
  
  <rect x="0" y="200" width="100" height="100" fill="url(#color3)" />
  <rect x="100" y="200" width="100" height="100" fill="url(#color4)" />
  <rect x="200" y="200" width="100" height="100" fill="url(#color6)" />
  <rect x="300" y="200" width="100" height="100" fill="url(#color5)" />
  
  <rect x="0" y="300" width="100" height="100" fill="url(#color4)" />
  <rect x="100" y="300" width="100" height="100" fill="url(#color3)" />
  <rect x="200" y="300" width="100" height="100" fill="url(#color5)" />
  <rect x="300" y="300" width="100" height="100" fill="url(#color6)" />
</svg>
